<mxfile host="Electron" modified="2023-11-13T21:15:30.315Z" agent="Mozilla/5.0 (Windows NT 10.0; Win64; x64) AppleWebKit/537.36 (KHTML, like Gecko) draw.io/22.0.2 Chrome/114.0.5735.289 Electron/25.8.4 Safari/537.36" etag="v3i7AjbIhOvGaBn2dOpQ" version="22.0.2" type="device">
  <diagram name="Page-1" id="yHc242_GxZx2E2c2NFTH">
    <mxGraphModel dx="1102" dy="811" grid="1" gridSize="10" guides="1" tooltips="1" connect="1" arrows="1" fold="1" page="1" pageScale="1" pageWidth="1100" pageHeight="850" math="0" shadow="0">
      <root>
        <mxCell id="0" />
        <mxCell id="1" parent="0" />
        <mxCell id="mdq2hoM6Ctc6lFcko9qX-2" value="" style="edgeStyle=orthogonalEdgeStyle;rounded=0;orthogonalLoop=1;jettySize=auto;html=1;" edge="1" parent="1" source="mdq2hoM6Ctc6lFcko9qX-3" target="mdq2hoM6Ctc6lFcko9qX-5">
          <mxGeometry relative="1" as="geometry" />
        </mxCell>
        <mxCell id="mdq2hoM6Ctc6lFcko9qX-3" value="&lt;p style=&quot;line-height: 90%;&quot;&gt;&lt;font style=&quot;font-size: 10px;&quot;&gt;Start&lt;/font&gt;&lt;/p&gt;" style="ellipse;whiteSpace=wrap;html=1;aspect=fixed;" vertex="1" parent="1">
          <mxGeometry x="80" y="120" width="40" height="40" as="geometry" />
        </mxCell>
        <mxCell id="mdq2hoM6Ctc6lFcko9qX-4" value="" style="edgeStyle=orthogonalEdgeStyle;rounded=0;orthogonalLoop=1;jettySize=auto;html=1;" edge="1" parent="1" source="mdq2hoM6Ctc6lFcko9qX-5" target="mdq2hoM6Ctc6lFcko9qX-7">
          <mxGeometry relative="1" as="geometry" />
        </mxCell>
        <mxCell id="mdq2hoM6Ctc6lFcko9qX-5" value="&lt;font style=&quot;font-size: 10px;&quot;&gt;Select Nav Menu&lt;/font&gt;" style="rounded=1;whiteSpace=wrap;html=1;" vertex="1" parent="1">
          <mxGeometry x="200" y="120" width="120" height="40" as="geometry" />
        </mxCell>
        <mxCell id="mdq2hoM6Ctc6lFcko9qX-6" value="" style="edgeStyle=orthogonalEdgeStyle;rounded=0;orthogonalLoop=1;jettySize=auto;html=1;" edge="1" parent="1" source="mdq2hoM6Ctc6lFcko9qX-7" target="mdq2hoM6Ctc6lFcko9qX-9">
          <mxGeometry relative="1" as="geometry" />
        </mxCell>
        <mxCell id="mdq2hoM6Ctc6lFcko9qX-7" value="&lt;font style=&quot;font-size: 10px;&quot;&gt;Click Events&amp;nbsp;Link&lt;/font&gt;" style="rounded=1;whiteSpace=wrap;html=1;" vertex="1" parent="1">
          <mxGeometry x="200" y="240" width="120" height="40" as="geometry" />
        </mxCell>
        <mxCell id="mdq2hoM6Ctc6lFcko9qX-8" value="" style="edgeStyle=orthogonalEdgeStyle;rounded=0;orthogonalLoop=1;jettySize=auto;html=1;" edge="1" parent="1" source="mdq2hoM6Ctc6lFcko9qX-9" target="mdq2hoM6Ctc6lFcko9qX-16">
          <mxGeometry relative="1" as="geometry">
            <mxPoint x="260" y="480" as="targetPoint" />
          </mxGeometry>
        </mxCell>
        <mxCell id="mdq2hoM6Ctc6lFcko9qX-9" value="&lt;font style=&quot;font-size: 10px;&quot;&gt;Click Individual&lt;br&gt;Event Link&lt;/font&gt;" style="rounded=1;whiteSpace=wrap;html=1;" vertex="1" parent="1">
          <mxGeometry x="200" y="360" width="120" height="40" as="geometry" />
        </mxCell>
        <mxCell id="mdq2hoM6Ctc6lFcko9qX-15" value="" style="edgeStyle=orthogonalEdgeStyle;rounded=0;orthogonalLoop=1;jettySize=auto;html=1;" edge="1" parent="1" source="mdq2hoM6Ctc6lFcko9qX-16" target="mdq2hoM6Ctc6lFcko9qX-17">
          <mxGeometry relative="1" as="geometry" />
        </mxCell>
        <mxCell id="mdq2hoM6Ctc6lFcko9qX-16" value="&lt;font style=&quot;font-size: 10px;&quot;&gt;Click Delete Button&lt;/font&gt;" style="rounded=1;whiteSpace=wrap;html=1;" vertex="1" parent="1">
          <mxGeometry x="200" y="480" width="120" height="40" as="geometry" />
        </mxCell>
        <mxCell id="mdq2hoM6Ctc6lFcko9qX-17" value="&lt;font style=&quot;font-size: 10px;&quot;&gt;Finish&lt;/font&gt;" style="ellipse;whiteSpace=wrap;html=1;aspect=fixed;fontSize=7;" vertex="1" parent="1">
          <mxGeometry x="430" y="480" width="40" height="40" as="geometry" />
        </mxCell>
      </root>
    </mxGraphModel>
  </diagram>
</mxfile>
